<svg xmlns="http://www.w3.org/2000/svg" xmlns:xlink="http://www.w3.org/1999/xlink" xml:space="preserve" version="1.1" style="shape-rendering:geometricPrecision;text-rendering:geometricPrecision;image-rendering:optimizeQuality;" viewBox="0 0 1.574 1.80125" x="0px" y="0px" fill-rule="evenodd" clip-rule="evenodd"><g><path class="fil0" d="M1.544 0.638c-0.062,0.034 -0.032,-0.016 -0.099,0.031 -0.013,0.009 -0.024,0.027 -0.04,0.043 -0.034,0.038 -0.054,-0.005 -0.067,-0.042 -0.023,-0.064 -0.037,-0.212 -0.01,-0.216 0.076,-0.032 0.063,-0 0.124,0.061 0.056,0.057 0.108,0.047 0.091,0.123zm-0.256 -0.266c-0.01,-0.034 0.1,-0.055 0.075,0.043 -0.012,0.028 -0.061,0.03 -0.075,-0.043zm0.228 -0.2c-0.026,0.075 -0.102,0.166 -0.168,0.157 -0.089,-0.011 -0.1,-0.156 -0.077,-0.244 0.01,-0.039 0.03,-0.067 0.07,-0.03 0.015,0.014 0.026,0.033 0.045,0.044 0.041,0.022 0.05,0.003 0.084,0.006 0.056,0.005 0.063,0.018 0.046,0.067zm-0.387 0.889c0.014,-0.08 0.036,-0.072 0.12,-0.082 -0.016,0.044 -0.073,0.074 -0.12,0.082zm0.141 -0.209c-0.026,-0.079 -0.014,-0.244 -0.039,-0.359 -0.024,-0.107 -0.124,-0.227 -0.019,-0.255 0.082,0.118 0.084,0.471 0.058,0.614zm-0.157 0.338l-0.001 -0.067c0.042,-0.036 0.09,-0.063 0.143,-0.078l-0.01 0.085c-0.036,0.016 -0.078,0.044 -0.132,0.059zm0.107 -0.006c-0.022,0.067 -0.073,0.149 -0.139,0.159 0.011,-0.031 0.035,-0.056 0.022,-0.113 0.035,-0.011 0.079,-0.039 0.117,-0.045zm-0.105 -1.06c0.067,0.097 0.058,0.054 0.017,0.135 -0.067,-0.059 -0.04,-0.092 -0.017,-0.135zm-0.065 1.118c0.04,0.049 0.003,0.11 -0.029,0.128 0.01,-0.043 -0.005,-0.103 0.029,-0.128zm0.053 -0.152l-0.131 0.029 -0 -0.1 0.133 -0.001 -0.002 0.072zm-0.174 -0.069c0.023,0.05 0.032,0.067 -0.009,0.111 -0.023,-0.013 -0.028,-0.024 -0.025,-0.059 0.007,-0.073 0.002,-0.033 0.033,-0.052zm0.153 0.116c0.004,0.08 0.001,0.068 -0.072,0.086 -0.04,0.01 -0.076,0.024 -0.116,0.03l0.01 -0.093 0.178 -0.023zm-0.158 -1.021c-0.046,-0.012 -0.095,-0.014 -0.142,-0.021 0.015,-0.088 0.068,-0.069 0.154,-0.059 0.066,0.008 0.107,0.021 0.153,0.072 -0.077,0.045 -0.061,0.034 -0.165,0.008zm-0.057 1.053c0.009,0.075 0.007,0.104 -0.076,0.097l-0.003 -0.083 0.078 -0.014zm0.075 0.224c-0.161,0.041 -0.165,0.01 -0.161,-0.072 0,-0.04 0.225,-0.079 0.227,-0.037 0.003,0.042 -0.008,0.094 -0.066,0.109zm0.241 -0.627c0.073,0.065 0.057,0.121 0.052,0.173 -0.078,0.049 -0.343,0.063 -0.442,0.064 0.016,-0.168 -0.017,-0.274 0.209,-0.303 0.08,-0.01 0.124,0.015 0.181,0.066zm-0.502 0.279c0.052,-0.015 0.14,-0.027 0.19,-0.001l-0.005 0.097 -0.193 0.008 0.009 -0.103zm0.067 0.32c0.002,0.081 -0.062,0.045 -0.06,-0.015 -0.012,-0.073 0.067,-0.068 0.06,0.015zm-0.005 -0.827c-0.031,0.115 0.016,0.228 0.016,0.327 0.008,0.246 -0.126,0.137 -0.147,0.082 -0.092,-0.232 0.06,-0.475 0.213,-0.503 0.049,0.004 -0.078,0.068 -0.082,0.095zm0.026 -0.499c-0.035,0.08 -0.092,0.055 -0.181,0.044 0.022,-0.056 0.142,-0.064 0.181,-0.044zm-0.253 1.242c0.165,0.005 0.134,0.074 0.136,0.127 -0.153,-0.025 -0.091,-0.008 -0.136,-0.127zm-0.064 -0.239l0.196 -0.001 -0.007 0.106 -0.17 -0.02 -0.018 -0.085zm-0.054 0.106l0.365 0.041 -0.002 0.082 -0.35 -0.037 -0.013 -0.086zm0.105 0.236c-0.065,-0.009 -0.068,-0.047 -0.073,-0.114 0.069,0.011 0.062,0.034 0.073,0.114zm-0.088 -0.26c-0.045,-0.02 -0.053,-0.061 -0.024,-0.095 0.025,0.015 0.02,-0.009 0.034,0.04 0.022,0.076 0.001,0.037 -0.01,0.056zm0.009 0.251c-0.101,-0.004 -0.11,-0.036 -0.109,-0.13 0.097,0.008 0.087,0.038 0.109,0.13zm0.182 -0.368c-0.154,0.004 -0.155,0.007 -0.305,-0.031 -0.014,-0.064 0.015,-0.111 0.078,-0.157 0.024,-0.017 0.052,0.037 0.078,0.055 0.005,-0.038 -0.029,-0.078 -0.007,-0.083 0.065,-0.008 0.093,0.001 0.102,0.022 0.01,0.026 0.008,0.095 0.054,0.194zm-0.31 0.137c0.078,-0.003 0.067,0.006 0.081,0.083 -0.058,-0.005 -0.093,-0.027 -0.081,-0.083zm0.187 -0.631c0.002,0.093 -0.038,0.162 -0.126,0.181 -0.001,-0.085 0.042,-0.163 0.126,-0.181zm-0.144 0.601c-0.061,-0.016 -0.063,-0.062 -0.038,-0.109 0.043,0.012 0.034,-0.006 0.047,0.043 0.011,0.044 0.001,0.047 -0.009,0.066zm-0.076 -0.024c-0.028,-0.011 -0.038,-0.016 -0.044,-0.052 -0.011,-0.071 0.01,-0.043 0.021,-0.052 0.035,0.033 0.025,0.054 0.023,0.104zm0.296 -1.022c-0.039,0.065 -0.186,0.069 -0.274,0.157 -0.09,-0.071 0.185,-0.194 0.274,-0.157zm-0.302 0.892c-0.07,-0.016 -0.197,-0.027 -0.152,-0.114 0.036,-0.069 0.128,-0.046 0.184,-0.02 0.011,0.052 -0.008,0.095 -0.033,0.134zm-0.095 0.227c0.147,0.042 0.106,0.119 0.122,0.149 -0.045,-0.027 -0.109,-0.091 -0.122,-0.149zm0.077 -0.99c0.033,0.074 -0.014,0.113 -0.075,0.15 -0.012,-0.054 -0.014,-0.136 0.075,-0.15zm-0.041 0.867c-0.074,-0.003 -0.119,-0.047 -0.116,-0.121l0.105 0.03 0.011 0.091zm0.067 0.129c-0.08,-0.023 -0.151,-0.046 -0.17,-0.131 0.089,0.036 0.182,0.032 0.17,0.131zm-0.025 -0.416c-0.081,-0.016 -0.139,0.038 -0.143,-0.007 -0.038,-0.339 0.213,-0.658 0.557,-0.655 0.447,0.005 0.585,0.219 0.573,0.648 -0.103,-0.06 -0.106,-0.11 -0.248,-0.087 -0.14,0.023 -0.114,0.061 -0.203,0.118 -0.004,-0.085 -0.037,-0.237 -0.013,-0.254 0.031,-0.025 0.056,-0.038 0.074,-0.056 0.043,-0.045 0.037,-0.092 -0.042,-0.065 -0.055,0.02 -0.107,0.069 -0.144,0.11 -0.078,0.086 -0.081,0.125 -0.092,0.242 -0.111,-0.03 -0.131,0.026 -0.2,-0.029 -0.015,-0.022 0.172,-0.053 0.149,-0.266 -0.07,0.014 -0.117,0.033 -0.148,0.098 -0.012,0.027 -0.025,0.092 -0.038,0.126 -0.012,0.03 -0.024,-0.002 -0.031,0.018 0.034,0.052 0.047,0.001 0.077,0.07 -0.076,0.059 -0.022,0.008 -0.128,-0.013zm-0.121 -0.461c0.052,0.069 -0.006,0.124 -0.027,0.229 -0.022,0.11 -0.015,0.196 -0.033,0.297 -0.056,-0.131 -0.036,-0.411 0.06,-0.525zm1.113 -0.12c-0.161,-0.07 -0.064,-0.21 -0.462,-0.19 -0.194,0.01 -0.31,0.013 -0.476,0.113 -0.346,0.21 -0.324,0.539 -0.241,0.896 0.034,0.145 0.115,0.298 0.257,0.365 0.068,0.032 0.476,0.072 0.557,0.058 0.462,-0.079 0.399,-0.277 0.442,-0.766 0.029,0.063 0.055,0.125 0.129,0.054 0.102,-0.097 0.058,-0.007 0.127,-0.07 0.047,-0.098 -0.078,-0.135 -0.148,-0.231 -0.036,-0.05 -0.036,-0.055 0.006,-0.096 0.06,-0.057 0.153,-0.122 0.124,-0.208 -0.047,-0.079 -0.08,-0.022 -0.142,-0.051 -0.082,-0.038 -0.152,-0.192 -0.174,0.124z"/></g><text x="0" y="16.441" fill="#000000" font-size="5px" font-weight="bold" font-family="'Helvetica Neue', Helvetica, Arial-Unicode, Arial, Sans-serif">Created by Valeriia Vlasovtseva</text><text x="0" y="21.441" fill="#000000" font-size="5px" font-weight="bold" font-family="'Helvetica Neue', Helvetica, Arial-Unicode, Arial, Sans-serif">from the Noun Project</text></svg>